<?xml version="1.0" standalone="no"?>
<!DOCTYPE svg PUBLIC "-//W3C//DTD SVG 20010904//EN"
 "http://www.w3.org/TR/2001/REC-SVG-20010904/DTD/svg10.dtd">
<svg version="1.0" xmlns="http://www.w3.org/2000/svg"
 width="700.000000pt" height="700.000000pt" viewBox="0 0 700.000000 700.000000"
 preserveAspectRatio="xMidYMid meet">
<metadata>
Created by potrace 1.11, written by Peter Selinger 2001-2013
</metadata>
<g transform="translate(0.000000,700.000000) scale(0.100000,-0.100000)"
fill="#000000" stroke="none">
<path d="M3458 6995 c-2 -2 -34 -6 -73 -9 -113 -11 -164 -20 -285 -51 -282
-72 -511 -205 -714 -414 -359 -369 -580 -903 -633 -1531 -16 -184 -8 -706 12
-855 2 -16 7 -52 10 -80 42 -362 157 -834 295 -1215 49 -135 53 -150 43 -150
-5 0 -78 14 -163 30 -165 32 -360 65 -450 75 -169 20 -218 23 -355 19 -82 -2
-170 -6 -195 -9 -121 -14 -306 -71 -400 -123 -209 -114 -339 -302 -341 -490
-2 -221 154 -389 441 -475 106 -32 210 -56 275 -62 28 -3 63 -8 78 -11 126
-26 639 -36 952 -19 83 4 175 9 205 10 60 3 181 14 220 20 14 2 50 7 80 10 30
3 67 8 81 10 15 3 31 -1 36 -8 6 -6 52 -93 103 -192 51 -99 100 -193 110 -210
10 -16 34 -61 55 -100 21 -38 58 -105 82 -149 23 -43 43 -82 43 -87 0 -4 15
-20 34 -34 98 -74 269 24 232 132 -4 13 -34 71 -67 129 -32 59 -59 108 -59
110 0 3 -10 21 -23 42 -27 42 -101 180 -175 324 -42 82 -47 98 -33 102 9 3 61
14 116 26 106 22 242 57 440 113 118 34 121 34 150 17 17 -10 56 -32 89 -50
249 -133 576 -354 847 -572 430 -345 789 -726 1095 -1165 58 -84 162 -97 238
-30 58 51 57 79 -5 172 -29 44 -56 82 -59 85 -3 3 -30 39 -60 80 -30 41 -57
77 -60 80 -3 3 -31 37 -62 75 -101 127 -226 263 -394 430 -170 169 -223 218
-399 366 -148 124 -507 391 -551 410 -5 2 -54 34 -109 70 -55 36 -142 90 -192
120 -51 30 -93 56 -93 60 0 3 46 25 103 49 394 167 810 425 1103 685 551 490
876 1084 931 1705 12 141 6 424 -11 515 -2 11 -7 40 -11 65 -4 25 -9 56 -12
70 -2 14 -15 68 -28 120 -157 625 -585 1162 -1175 1474 -252 133 -528 222
-835 270 -96 15 -466 31 -477 21z m392 -239 c25 -3 61 -8 80 -12 19 -3 49 -8
65 -11 31 -5 140 -33 232 -59 368 -106 773 -377 1030 -689 131 -158 258 -374
323 -545 18 -47 36 -94 40 -105 34 -87 77 -281 94 -420 13 -102 14 -386 2
-475 -48 -361 -169 -678 -381 -1000 -349 -530 -945 -971 -1676 -1240 l-80 -30
-67 31 c-148 70 -222 102 -327 145 -60 25 -123 51 -140 59 -46 21 -131 51
-365 129 -209 70 -215 73 -233 108 -20 41 -104 263 -137 363 -12 39 -26 79
-31 90 -33 82 -127 434 -163 615 -46 228 -56 300 -82 580 -5 61 -5 479 0 510
3 14 7 61 10 105 5 66 42 305 60 391 57 269 179 584 295 764 9 14 21 32 26 41
108 174 295 365 455 464 162 101 376 176 550 191 30 3 56 7 59 10 6 5 300 -3
361 -10z m-2539 -4190 c41 -4 94 -9 119 -12 77 -9 204 -25 230 -29 178 -28
234 -38 340 -60 69 -14 134 -28 145 -30 11 -3 34 -8 51 -11 35 -6 33 -4 99
-159 24 -55 71 -158 105 -228 34 -70 59 -131 56 -135 -4 -3 -17 -7 -29 -8 -12
-1 -53 -4 -92 -8 -38 -3 -104 -9 -145 -12 -41 -3 -93 -7 -115 -9 -266 -28
-853 -25 -1045 5 -108 16 -146 24 -230 46 -244 62 -353 214 -276 381 68 145
255 251 476 269 41 3 76 7 77 8 4 3 165 -2 234 -8z m1370 -275 c119 -41 244
-90 394 -156 72 -31 137 -59 145 -63 16 -6 15 -7 -160 -53 -63 -17 -151 -37
-195 -45 -44 -8 -88 -17 -97 -20 -13 -4 -26 13 -57 74 -42 83 -131 279 -131
287 0 9 15 5 101 -24z"/>
<path d="M6574 491 c-58 -27 -78 -54 -80 -109 -2 -87 50 -134 150 -135 88 -1
155 50 162 122 11 98 -126 169 -232 122z"/>
</g>
</svg>
