<?xml version="1.0" encoding="utf-8"?>
<!-- Generator: Adobe Illustrator 19.1.0, SVG Export Plug-In . SVG Version: 6.00 Build 0)  -->
<svg version="1.1" id="Calque_1" xmlns="http://www.w3.org/2000/svg" xmlns:xlink="http://www.w3.org/1999/xlink" x="0px" y="0px"
	 viewBox="0 0 80 80" style="enable-background:new 0 0 80 80;" xml:space="preserve">
<path d="M1.1,39c0-6.9,1.7-13.2,5.1-19c3.4-5.8,8-10.4,13.8-13.8c5.8-3.4,12.2-5.1,19-5.1c6.9,0,13.2,1.7,19,5.1
	c5.8,3.4,10.4,8,13.8,13.8c3.4,5.8,5.1,12.2,5.1,19s-1.7,13.2-5.1,19c-3.4,5.8-8,10.4-13.8,13.8c-5.8,3.4-12.2,5.1-19,5.1
	c-6.9,0-13.2-1.7-19-5.1c-5.8-3.4-10.4-8-13.8-13.8C2.8,52.2,1.1,45.9,1.1,39z M7.4,39c0,7.9,2.7,14.8,8,20.9
	c2.4-4.8,6.3-9.3,11.5-13.6c5.3-4.3,10.4-7,15.4-8.1c-0.8-1.8-1.5-3.4-2.2-4.8c-8.7,2.8-18.1,4.2-28.2,4.2c-2,0-3.4,0-4.4-0.1
	c0,0.2,0,0.5,0,0.8C7.4,38.5,7.4,38.8,7.4,39z M8.4,31.2c1.1,0.1,2.8,0.2,4.9,0.2c8.4,0,16.5-1.1,24-3.4
	c-3.8-6.8-8.1-12.5-12.7-17.1c-4,2-7.4,4.8-10.3,8.4C11.5,22.9,9.5,26.8,8.4,31.2z M19.7,63.9c5.7,4.4,12.2,6.7,19.3,6.7
	c3.7,0,7.5-0.7,11.1-2.1c-1-8.6-3-17-5.9-25.1c-4.7,1-9.3,3.6-14.1,7.7C25.4,55.2,21.9,59.4,19.7,63.9z M31.3,8.4
	c4.4,4.6,8.6,10.3,12.4,17.2c6.9-2.9,12.1-6.5,15.5-11C53.3,9.8,46.6,7.4,39,7.4C36.4,7.4,33.8,7.7,31.3,8.4z M46.4,31
	c0.8,1.6,1.6,3.7,2.6,6.1c3.7-0.4,7.8-0.5,12.2-0.5c3.1,0,6.2,0.1,9.3,0.2c-0.4-6.9-2.9-13-7.4-18.3C59.8,23.4,54.2,27.6,46.4,31z
	 M50.8,42.5c2.6,7.5,4.3,15.2,5.2,23.1c4-2.6,7.3-5.9,9.8-9.9c2.5-4,4-8.4,4.5-13.1c-3.7-0.3-7.1-0.4-10.1-0.4
	C57.5,42.1,54.4,42.2,50.8,42.5z"/>
</svg>
