<?xml version="1.0" encoding="utf-8"?>
<!-- Generator: Adobe Illustrator 19.1.0, SVG Export Plug-In . SVG Version: 6.00 Build 0)  -->
<svg version="1.1" id="Calque_1" xmlns="http://www.w3.org/2000/svg" xmlns:xlink="http://www.w3.org/1999/xlink" x="0px" y="0px"
	 viewBox="0 0 80 80" style="enable-background:new 0 0 80 80;" xml:space="preserve">
<style type="text/css">
	.st0{fill:#1D1D1B;}
</style>
<g>
	<path class="st0" d="M44.1,56.9c15.8-6.3,26.5-19,24.4-33.9c-1-7.3-5.2-14.3-12.5-18.8C47.8-0.8,35.3-2.1,28,4.7
		c-8.6,8.1-9,21.2-7.4,31.2c0.7,4.5,2,9,3.7,13.4c-2.8-0.6-5.7-1.1-8.5-1.4c-4.8-0.5-10,0.4-12.5,4.1c-2,3.1-0.8,6.6,3.2,8.1
		c4.3,1.6,10.1,1.5,14.8,1.4c2.7-0.1,5.5-0.3,8.1-0.7c1.5,2.9,3,5.8,4.6,8.6c0.9,1.6,3.8,0.2,2.9-1.4c-1.4-2.5-2.9-5.1-4.2-7.8
		c1.5-0.3,3-0.6,4.4-1c1.2-0.3,2.4-0.7,3.5-1C50.6,63.5,58.9,71,64.3,79c1,1.5,3.9,0.2,2.9-1.3C61.8,69.7,53.7,62.3,44.1,56.9z
		 M24.6,17.2C27,9.1,32.8,1,44.8,2.9c8.9,1.4,15.7,7.4,18.6,14c5.9,13.3-1.2,27.9-15.8,35.4c-2.1,1.1-4.4,2.1-6.7,2.9
		c-4.1-2-8.4-3.7-12.8-5C23.7,39.5,21.5,28.3,24.6,17.2z M22.2,58.8c-4.3,0.2-9.8,0.4-13.8-0.9c-3.2-1.1-3.5-3.7-1.3-5.6
		c2-1.8,5.4-1.9,8.2-1.6c3.4,0.3,6.9,0.9,10.2,1.7c0.8,2,1.7,4,2.7,5.9C26.1,58.5,24.1,58.7,22.2,58.8z M31.4,57.7
		c-0.7-1.4-1.4-2.8-2-4.3c2.6,0.8,5.2,1.9,7.6,3C35.2,56.9,33.3,57.4,31.4,57.7z"/>
	<path class="st0" d="M75.9,76.9c-1.1-0.3-1.6-0.7-1.4-1.3c0.1-0.5,0.5-0.9,1.4-1c-0.9-0.1-1.7,0.7-1.7,1.3c0,0.8,0.7,1.3,1.7,1.3
		c1.1,0.1,1.9-0.7,1.9-1.5c0-0.8-0.8-1.6-1.9-1.5c-0.9,0-1.7,0.6-1.7,1.3C74.2,76.2,74.9,76.9,75.9,76.9"/>
</g>
</svg>
