<?xml version="1.0" encoding="utf-8"?>
<!-- Generator: Adobe Illustrator 19.1.0, SVG Export Plug-In . SVG Version: 6.00 Build 0)  -->
<svg version="1.1" xmlns="http://www.w3.org/2000/svg" xmlns:xlink="http://www.w3.org/1999/xlink" x="0px" y="0px"
	 viewBox="0 0 363 121" style="enable-background:new 0 0 363 121;" xml:space="preserve">
<style type="text/css">
	.st0{fill:#FFFFFF;}
	.st1{display:none;}
	.st2{display:inline;fill:#B7B7B7;}
</style>
<g id="Calque_1">
	<g>
		<path class="st0" d="M345,69.3c-5.8-3.4-14.8,0.6-20.9,1.5c-1.3,0.2-4.6,1-5.8,0.2c-1.9-1.2,0.4-2.3,1.4-3.7
			c2.2-3.1,1-6.1-1.9-8.2c-7.9-5.7-19.3-1.2-26.5,3.4c-2.3,1.4-4.5,3-7,4.2c-2.6,1.3-8.3,4.2-11.3,3c-1.2-0.5-1.9-1.1-2.4-1.9
			c3-1.2,5.9-2.9,8.6-4.8c4.2-3,10.9-7,10.6-13c-0.3-5.8-6.5-5.8-10.4-3.6c-5.3,3-10.4,8.4-12.3,14.3c-0.5,1.4-0.7,3-0.8,4.5
			c-4.1,1.3-8.6,1.8-12.6,0.8c-3.8-1-6-4.1-9.5-5.6c-3.4-1.5-7.2-0.9-10.6,0.4c-8.3,3.3-21.1,19.6-30.7,11.2
			c-3.3-2.8-4.3-7.8-7.8-10.3c-4.7-3.3-10.4,2-14.1,4.5c-3.2,2.2-6.3,4.5-9.4,6.8c0.4-0.3-2.7,2.4-3.4,2.4c-5.2,0.3-3.4-5-2.8-7.6
			c0.5-2,1.1-3.9,1.9-5.7c16.9-15.1,32.2-31.8,47-49.1c1.4-1.6-0.4-4.5-2.4-3.1c-14,9.5-26.8,20.9-37.5,34.1
			c-4,4.9-7.7,10-10.3,15.8c-6,5.3-12.1,10.3-18.6,15.1c-5.9,4.4-18.4,13.2-24.3,3.9c-2.7-4.4-2.5-10.7-9.6-9.6
			c-7.4,1.2-24,17.2-16.8,25.3c4.1,4.6,13-0.4,16.7-3.2c3.3-2.6,5.7-6.1,6.6-9.9c2.5,3.5,6.7,5.3,11.2,5.2
			c7.5-0.2,13.1-4.5,18.9-8.8c4.5-3.4,8.9-6.9,13.2-10.5c-1.1,4.3-1.6,9.6,1.9,11.9c5.5,3.6,12.8-4.7,16.6-7.5
			c3.5-2.5,10.2-8.8,14.4-5c2,1.8,3.1,5.2,5,7.2c9.6,10,22-0.7,30.4-6.5c3-2.1,6.6-4.4,10.5-4.2c2.7,0.1,4.3,1.7,6.4,3.3
			c4.6,3.4,9.6,4,15.2,3.4c1.8-0.2,3.5-0.6,5.2-1.1c0.6,1.7,1.8,3.1,3.6,3.9c5.6,2.7,13.3-1.4,18.1-4.2c7.3-4.3,14.4-9.8,23.5-7.7
			c2.8,0.6,5.1,2,3.7,4.6c-0.6,1.1-1.7,1.7-2.3,2.9c-0.7,1.6-0.6,3.4,0.6,4.7c2.7,3,8,1.9,11.4,1.3c4.5-0.8,13-4.4,17.3-1.9
			C345.2,74.1,347.2,70.6,345,69.3z M108,89.1c-1.5,1-3.5,2.1-5.1,2.5c-1.9,1-3.7,0.6-5.5-1.3c0.1-1.4,0.4-2.7,1.1-3.9
			c1.8-3.7,4.8-7.1,8-9.8c1.8-1.5,4.7-4,7.1-3.3c0,0.2,0,0.4,0.1,0.6C115.9,80,113.1,85.7,108,89.1z M178.3,45.6
			c6.1-7.2,12.7-13.9,19.9-20.1c-7.5,8.4-15.2,16.5-23.3,24.3C176,48.4,177.2,47,178.3,45.6z M280.2,50.7c2.7-1.3,6.3,0.6,3.7,3.6
			c-1,1.1-2.3,2-3.5,2.9c-2.5,2-5.1,3.9-7.9,5.4c-0.7,0.4-1.5,0.8-2.2,1.1C271.5,58.5,277.6,52,280.2,50.7z"/>
		<path class="st0" d="M236.6,50.9c0.4,0.3,0.9,0.6,1.4,0.7c2.2,0.6,4.2-1.2,4.3-3.4c0.1-1-1-2-2-2c-0.4,0-0.8,0.2-1.2,0.4
			c-0.3-0.5-0.9-0.9-1.5-0.9c-1-0.1-1.9,0.5-2.2,1.4c-0.2,0.5-0.2,1-0.1,1.5c0,0.1,0,0.3,0,0.4C235.3,49.9,235.8,50.6,236.6,50.9z"
			/>
		<path class="st0" d="M359.6,71.4c-1.2,0-2.4,0.8-2.3,1.8l0,0.2c0,0.1,0,0.2,0,0.4c0.1,1.1,1,1.7,2.3,1.8c1.5,0.1,2.6-1,2.6-2.1
			C362.2,72.4,361.1,71.3,359.6,71.4z"/>
		<path class="st0" d="M63.3,86c23.7-9.5,39.6-28.4,36.5-50.6C98.2,24.6,92,14.1,81.1,7.3c-12.3-7.6-31-9.5-42,0.8
			c-12.8,12-13.5,31.7-11,46.5c1.1,6.8,3,13.4,5.5,20c-4.2-0.9-8.4-1.6-12.8-2c-7.2-0.7-15,0.6-18.6,6.1C-0.8,83.3,1,88.5,7,90.8
			c6.4,2.4,15.1,2.3,22,2c4.1-0.1,8.1-0.5,12.2-1c2.2,4.3,4.5,8.6,6.9,12.9c1.3,2.3,5.6,0.3,4.3-2c-2.1-3.8-4.3-7.7-6.3-11.6
			c2.2-0.4,4.4-0.9,6.6-1.5c1.8-0.5,3.6-1,5.3-1.6C72.9,95.9,85.4,107,93.5,119c1.5,2.3,5.8,0.3,4.3-2C89.8,105.1,77.7,94.1,63.3,86
			z M30.5,88.8c-6.4,0.3-14.6,0.7-20.6-1.4C5.2,85.8,4.6,81.9,8,79c3-2.7,8-2.8,12.2-2.5c5.2,0.4,10.2,1.3,15.2,2.6
			c1.2,3,2.6,5.9,4,8.9C36.4,88.4,33.5,88.6,30.5,88.8z M44.2,87.2c-1-2.1-2-4.2-3-6.4c3.9,1.3,7.7,2.8,11.4,4.5
			C49.9,86.1,47.1,86.7,44.2,87.2z M39.3,76c-6.4-16-9.8-32.8-5.1-49.3C37.7,14.6,46.4,2.4,64.3,5.3c13.3,2.2,23.4,11,27.8,21
			c8.9,19.9-1.8,41.7-23.6,52.9c-3.2,1.6-6.6,3.1-10,4.3C52.4,80.5,45.9,77.9,39.3,76z"/>
	</g>
</g>
<g id="Calque_2" class="st1">
	<path class="st2" d="M488.5,195.5h-417v-740.9h417V195.5z M73.5,193.5h413v-736.9h-413V193.5z"/>
	<path class="st2" d="M445.1,322.5H115.7c-39.9,0-72.4-32.4-72.4-72.3v-530.3c0-0.9-0.7-1.6-1.6-1.6c-2,0-3.6-1.6-3.6-3.6l-0.2-65
		c0-1,0.4-1.9,1.1-2.6c0.7-0.7,1.6-1.1,2.6-1.1h0.2c0.9,0,1.7-0.7,1.7-1.6v-12.9c0-0.4-0.2-0.9-0.5-1.2c-0.3-0.3-0.7-0.5-1.2-0.5
		c0,0,0,0,0,0l-0.2,0c0,0,0,0,0,0c-1,0-1.9-0.4-2.6-1.1c-0.7-0.7-1.1-1.6-1.1-2.6l0-65.8c0-1,0.4-1.9,1.1-2.6
		c0.7-0.7,1.6-1.1,2.6-1.1l0.2,0c0.9,0,1.7-0.7,1.7-1.6v-39.8c0-0.9-0.7-1.6-1.6-1.6l-0.3,0c-2,0-3.6-1.7-3.6-3.6v-33.3
		c0-2,1.6-3.6,3.6-3.6l0.3,0c0.9,0,1.6-0.8,1.6-1.6v-50c0-39.9,32.5-72.3,72.4-72.3h329.4c39.9,0,72.4,32.4,72.4,72.3v828.7
		C517.5,290.1,485.1,322.5,445.1,322.5z M41.4-352c-0.4,0-0.9,0.2-1.2,0.5c-0.3,0.3-0.5,0.7-0.5,1.2l0.2,65c0,0.9,0.7,1.6,1.6,1.6
		c2,0,3.6,1.6,3.6,3.6v530.3c0,38.8,31.6,70.3,70.4,70.3h329.4c38.8,0,70.4-31.5,70.4-70.3v-828.7c0-38.8-31.6-70.3-70.4-70.3H115.7
		c-38.8,0-70.4,31.5-70.4,70.3v50c0,2-1.6,3.6-3.6,3.6l-0.3,0c-0.9,0-1.6,0.8-1.6,1.6v33.3c0,0.9,0.7,1.6,1.6,1.6l0.3,0
		c2,0,3.6,1.7,3.6,3.6v39.8c0,2-1.6,3.6-3.6,3.6l-0.2,0c-0.4,0-0.9,0.2-1.2,0.5c-0.3,0.3-0.5,0.7-0.5,1.2l0,65.8
		c0,0.4,0.2,0.9,0.5,1.2c0.3,0.3,0.7,0.5,1.2,0.5c0,0,0,0,0,0l0.2,0c0,0,0,0,0,0c1,0,1.9,0.4,2.6,1.1c0.7,0.7,1.1,1.6,1.1,2.6v12.9
		c0,2-1.6,3.6-3.7,3.6H41.4z"/>
	<path class="st2" d="M278.6-584.6c-3.7,0-6.6-3-6.6-6.6s3-6.6,6.6-6.6s6.6,3,6.6,6.6S282.3-584.6,278.6-584.6z M278.6-595.8
		c-2.5,0-4.6,2.1-4.6,4.6s2.1,4.6,4.6,4.6s4.6-2.1,4.6-4.6S281.2-595.8,278.6-595.8z"/>
	<path class="st2" d="M279.6,295.1c-21.8,0-39.5-17.7-39.5-39.5s17.7-39.5,39.5-39.5s39.5,17.7,39.5,39.5S301.4,295.1,279.6,295.1z
		 M279.6,218.2c-20.7,0-37.5,16.8-37.5,37.5s16.8,37.5,37.5,37.5s37.5-16.8,37.5-37.5S300.3,218.2,279.6,218.2z"/>
</g>
</svg>
