<?xml version="1.0" encoding="utf-8"?>
<!-- Generator: Adobe Illustrator 19.1.0, SVG Export Plug-In . SVG Version: 6.00 Build 0)  -->
<svg version="1.1" id="Calque_1" xmlns="http://www.w3.org/2000/svg" xmlns:xlink="http://www.w3.org/1999/xlink" x="0px" y="0px"
	 viewBox="0 0 80 80" style="enable-background:new 0 0 80 80;" xml:space="preserve">
<g>
	<path d="M77.3,9.5c-1.2,3.7-3.6,6.6-6.9,8.7c1.6-0.2,3.1-0.4,4.6-0.9c1.5-0.4,3-1,4.4-1.5c0,0-0.1,0.1-0.1,0.2
		c-1.5,2.2-3.2,4.2-5.2,5.9c-0.8,0.7-1.6,1.3-2.4,1.9c-0.2,0.1-0.2,0.3-0.2,0.5c0,1.9,0,3.8-0.2,5.7c-0.2,3-0.8,6-1.7,8.8
		c-1.8,6.2-4.7,11.9-8.8,16.8c-3.7,4.5-8.1,8.2-13.3,11c-4.3,2.2-8.8,3.8-13.5,4.6c-3.9,0.6-7.7,0.8-11.6,0.6
		c-5.2-0.4-10.1-1.6-14.9-3.6c-2.2-0.9-4.3-2-6.3-3.3C1,65,0.9,64.9,0.8,64.8c8.8,0.9,16.7-1.4,23.7-6.7c-3.4-0.2-6.5-1.2-9.3-3.2
		c-2.7-2-4.6-4.7-5.7-8c2.4,0.4,4.8,0.4,7.2-0.3c-3.7-0.9-6.8-2.8-9.3-5.7c-2.5-3-3.6-6.4-3.6-10.3c2.3,1.3,4.7,1.9,7.3,2
		c-4.2-3-6.7-7-7.1-12.2c-0.3-3.3,0.5-6.4,2.1-9.3C14.9,21.5,26,27.1,39.5,28c-0.1-0.6-0.2-1.1-0.3-1.6c-0.5-4.1,0.4-7.8,2.7-11.2
		c1.3-1.9,2.9-3.4,4.8-4.6c3.2-1.9,6.6-2.7,10.3-2.3c3.8,0.4,7.1,2,9.9,4.8c0.1,0.1,0.3,0.2,0.5,0.1c2.2-0.5,4.3-1.1,6.3-2
		C74.9,10.7,76.1,10.1,77.3,9.5z"/>
</g>
</svg>
